<mxfile host="app.diagrams.net" agent="Mozilla/5.0 (Windows NT 10.0; Win64; x64) AppleWebKit/537.36 (KHTML, like Gecko) Chrome/133.0.0.0 Safari/537.36" version="26.0.16">
  <diagram id="kgpKYQtTHZ0yAKxKKP6v" name="Page-1">
    <mxGraphModel dx="1290" dy="607" grid="1" gridSize="10" guides="1" tooltips="1" connect="1" arrows="1" fold="1" page="1" pageScale="1" pageWidth="850" pageHeight="1100" math="0" shadow="0">
      <root>
        <mxCell id="0" />
        <mxCell id="1" parent="0" />
        <mxCell id="t3cLdbqHOxUghfogPtXq-2" value="Nút thêm mới học sinh" style="ellipse;whiteSpace=wrap;html=1;" vertex="1" parent="1">
          <mxGeometry x="100" y="440" width="120" height="80" as="geometry" />
        </mxCell>
        <mxCell id="t3cLdbqHOxUghfogPtXq-12" style="edgeStyle=none;curved=1;rounded=0;orthogonalLoop=1;jettySize=auto;html=1;entryX=1;entryY=0.5;entryDx=0;entryDy=0;fontSize=12;startSize=8;endSize=8;" edge="1" parent="1" source="t3cLdbqHOxUghfogPtXq-4" target="t3cLdbqHOxUghfogPtXq-9">
          <mxGeometry relative="1" as="geometry">
            <Array as="points">
              <mxPoint x="840" y="490" />
              <mxPoint x="750" y="870" />
            </Array>
          </mxGeometry>
        </mxCell>
        <mxCell id="t3cLdbqHOxUghfogPtXq-20" style="edgeStyle=none;curved=1;rounded=0;orthogonalLoop=1;jettySize=auto;html=1;entryX=1;entryY=1;entryDx=0;entryDy=0;fontSize=12;startSize=8;endSize=8;" edge="1" parent="1" source="t3cLdbqHOxUghfogPtXq-4" target="t3cLdbqHOxUghfogPtXq-2">
          <mxGeometry relative="1" as="geometry" />
        </mxCell>
        <mxCell id="t3cLdbqHOxUghfogPtXq-4" value="" style="rounded=0;whiteSpace=wrap;html=1;" vertex="1" parent="1">
          <mxGeometry x="440" y="430" width="250" height="210" as="geometry" />
        </mxCell>
        <mxCell id="t3cLdbqHOxUghfogPtXq-6" value="post req: {data}" style="rounded=0;whiteSpace=wrap;html=1;" vertex="1" parent="1">
          <mxGeometry x="240" y="420" width="150" height="40" as="geometry" />
        </mxCell>
        <mxCell id="t3cLdbqHOxUghfogPtXq-7" value="Server" style="text;html=1;align=center;verticalAlign=middle;resizable=0;points=[];autosize=1;strokeColor=none;fillColor=none;fontSize=16;" vertex="1" parent="1">
          <mxGeometry x="537.5" y="650" width="70" height="30" as="geometry" />
        </mxCell>
        <mxCell id="t3cLdbqHOxUghfogPtXq-8" style="edgeStyle=none;curved=1;rounded=0;orthogonalLoop=1;jettySize=auto;html=1;exitX=1;exitY=0.5;exitDx=0;exitDy=0;entryX=0.019;entryY=0.357;entryDx=0;entryDy=0;entryPerimeter=0;fontSize=12;startSize=8;endSize=8;" edge="1" parent="1" source="t3cLdbqHOxUghfogPtXq-2" target="t3cLdbqHOxUghfogPtXq-4">
          <mxGeometry relative="1" as="geometry" />
        </mxCell>
        <mxCell id="t3cLdbqHOxUghfogPtXq-26" style="edgeStyle=none;curved=1;rounded=0;orthogonalLoop=1;jettySize=auto;html=1;exitX=0.5;exitY=0;exitDx=0;exitDy=0;entryX=0.25;entryY=1;entryDx=0;entryDy=0;fontSize=12;startSize=8;endSize=8;" edge="1" parent="1" source="t3cLdbqHOxUghfogPtXq-9" target="t3cLdbqHOxUghfogPtXq-4">
          <mxGeometry relative="1" as="geometry" />
        </mxCell>
        <mxCell id="t3cLdbqHOxUghfogPtXq-9" value="" style="rounded=0;whiteSpace=wrap;html=1;" vertex="1" parent="1">
          <mxGeometry x="290" y="750" width="170" height="120" as="geometry" />
        </mxCell>
        <mxCell id="t3cLdbqHOxUghfogPtXq-10" value="Database" style="text;html=1;align=center;verticalAlign=middle;resizable=0;points=[];autosize=1;strokeColor=none;fillColor=none;fontSize=16;" vertex="1" parent="1">
          <mxGeometry x="330" y="790" width="90" height="30" as="geometry" />
        </mxCell>
        <mxCell id="t3cLdbqHOxUghfogPtXq-13" value="index.js" style="rounded=0;whiteSpace=wrap;html=1;" vertex="1" parent="1">
          <mxGeometry x="480" y="440" width="90" height="40" as="geometry" />
        </mxCell>
        <mxCell id="t3cLdbqHOxUghfogPtXq-14" style="edgeStyle=none;curved=1;rounded=0;orthogonalLoop=1;jettySize=auto;html=1;exitX=1;exitY=0.5;exitDx=0;exitDy=0;fontSize=12;startSize=8;endSize=8;" edge="1" parent="1" source="t3cLdbqHOxUghfogPtXq-13" target="t3cLdbqHOxUghfogPtXq-13">
          <mxGeometry relative="1" as="geometry" />
        </mxCell>
        <mxCell id="t3cLdbqHOxUghfogPtXq-15" style="edgeStyle=none;curved=1;rounded=0;orthogonalLoop=1;jettySize=auto;html=1;exitX=0;exitY=0.5;exitDx=0;exitDy=0;fontSize=12;startSize=8;endSize=8;" edge="1" parent="1" source="t3cLdbqHOxUghfogPtXq-13" target="t3cLdbqHOxUghfogPtXq-13">
          <mxGeometry relative="1" as="geometry" />
        </mxCell>
        <mxCell id="t3cLdbqHOxUghfogPtXq-19" style="edgeStyle=none;curved=1;rounded=0;orthogonalLoop=1;jettySize=auto;html=1;entryX=0;entryY=0.5;entryDx=0;entryDy=0;fontSize=12;startSize=8;endSize=8;" edge="1" parent="1" source="t3cLdbqHOxUghfogPtXq-17" target="t3cLdbqHOxUghfogPtXq-4">
          <mxGeometry relative="1" as="geometry" />
        </mxCell>
        <mxCell id="t3cLdbqHOxUghfogPtXq-17" value="post api" style="rounded=0;whiteSpace=wrap;html=1;" vertex="1" parent="1">
          <mxGeometry x="480" y="510" width="100" height="40" as="geometry" />
        </mxCell>
        <mxCell id="t3cLdbqHOxUghfogPtXq-18" value="student.js" style="text;html=1;align=center;verticalAlign=middle;resizable=0;points=[];autosize=1;strokeColor=none;fillColor=none;fontSize=16;" vertex="1" parent="1">
          <mxGeometry x="570" y="570" width="90" height="30" as="geometry" />
        </mxCell>
        <mxCell id="t3cLdbqHOxUghfogPtXq-21" style="edgeStyle=none;curved=1;rounded=0;orthogonalLoop=1;jettySize=auto;html=1;exitX=0.5;exitY=1;exitDx=0;exitDy=0;entryX=0.428;entryY=0.06;entryDx=0;entryDy=0;entryPerimeter=0;fontSize=12;startSize=8;endSize=8;" edge="1" parent="1" source="t3cLdbqHOxUghfogPtXq-13" target="t3cLdbqHOxUghfogPtXq-17">
          <mxGeometry relative="1" as="geometry" />
        </mxCell>
        <mxCell id="t3cLdbqHOxUghfogPtXq-22" style="edgeStyle=none;curved=1;rounded=0;orthogonalLoop=1;jettySize=auto;html=1;exitX=1;exitY=0.5;exitDx=0;exitDy=0;entryX=1;entryY=0.411;entryDx=0;entryDy=0;entryPerimeter=0;fontSize=12;startSize=8;endSize=8;" edge="1" parent="1" source="t3cLdbqHOxUghfogPtXq-17" target="t3cLdbqHOxUghfogPtXq-4">
          <mxGeometry relative="1" as="geometry" />
        </mxCell>
        <mxCell id="t3cLdbqHOxUghfogPtXq-24" value="response: http status" style="rounded=0;whiteSpace=wrap;html=1;" vertex="1" parent="1">
          <mxGeometry x="240" y="545" width="130" height="35" as="geometry" />
        </mxCell>
        <mxCell id="t3cLdbqHOxUghfogPtXq-25" value="Lưu {data} vào db" style="rounded=0;whiteSpace=wrap;html=1;" vertex="1" parent="1">
          <mxGeometry x="607.5" y="740" width="100" height="40" as="geometry" />
        </mxCell>
        <mxCell id="t3cLdbqHOxUghfogPtXq-31" value="" style="endArrow=classic;html=1;rounded=0;fontSize=12;startSize=8;endSize=8;curved=1;" edge="1" parent="1">
          <mxGeometry width="50" height="50" relative="1" as="geometry">
            <mxPoint x="497.5" y="640" as="sourcePoint" />
            <mxPoint x="537.5" y="550" as="targetPoint" />
          </mxGeometry>
        </mxCell>
        <mxCell id="t3cLdbqHOxUghfogPtXq-32" style="edgeStyle=none;curved=1;rounded=0;orthogonalLoop=1;jettySize=auto;html=1;exitX=0.5;exitY=1;exitDx=0;exitDy=0;fontSize=12;startSize=8;endSize=8;" edge="1" parent="1" source="t3cLdbqHOxUghfogPtXq-9" target="t3cLdbqHOxUghfogPtXq-9">
          <mxGeometry relative="1" as="geometry" />
        </mxCell>
        <mxCell id="t3cLdbqHOxUghfogPtXq-33" value="Lưu thành công" style="rounded=0;whiteSpace=wrap;html=1;" vertex="1" parent="1">
          <mxGeometry x="300" y="660" width="120" height="40" as="geometry" />
        </mxCell>
      </root>
    </mxGraphModel>
  </diagram>
</mxfile>
